<svg xmlns="http://www.w3.org/2000/svg" xmlns:xlink="http://www.w3.org/1999/xlink" version="1.1" width="32" height="32" viewBox="0 0 32 32"><defs><path d="M26.722 31.223c-0.041 0.011-0.084 0.014-0.123 0.014-0.254 0-0.482-0.174-0.539-0.428-0.623-2.72-2.318-8.462-3.328-9.739-0.015-0.020-0.030-0.040-0.041-0.062-1.646-2.779-5.361-2.426-5.397-2.418l-3.544 0.003c-0.044 0.002-2.994-0.061-4.651 2.318-0.954 1.373-2.551 7.217-3.156 9.894-0.067 0.299-0.363 0.488-0.661 0.419-0.299-0.067-0.488-0.364-0.419-0.663 0.576-2.551 2.21-8.68 3.326-10.284 2.008-2.886 5.435-2.79 5.582-2.793h3.462c0.122-0.017 4.372-0.44 6.394 2.929 1.291 1.681 3.023 8.014 3.514 10.147 0.067 0.3-0.12 0.597-0.418 0.664zM7.782 8.549c0-4.294 3.493-7.785 7.784-7.785 4.296 0 7.79 3.491 7.79 7.785 0 4.293-3.494 7.785-7.79 7.785-4.291 0-7.784-3.493-7.784-7.785zM8.891 8.549c0 3.682 2.994 6.677 6.674 6.677 3.683 0 6.679-2.996 6.679-6.677s-2.996-6.679-6.679-6.679c-3.68 0-6.674 2.997-6.674 6.679z" id="icons-tonicons-avatar" /></defs><use xlink:href="#icons-tonicons-avatar" fill-rule="evenodd" /></svg>