<svg xmlns="http://www.w3.org/2000/svg" xmlns:xlink="http://www.w3.org/1999/xlink" version="1.1" width="32" height="32" viewBox="0 0 32 32"><defs><path d="M11.139 6.251v-1.262c0-2.33 1.896-4.227 4.229-4.227h1.251c2.331 0 4.229 1.897 4.229 4.227v1.26c0 0.308-0.248 0.556-0.556 0.556s-0.558-0.248-0.558-0.556v-1.26c0-1.717-1.396-3.115-3.113-3.115h-1.251c-1.717 0-3.115 1.397-3.115 3.115v1.26c0 0.308-0.25 0.556-0.558 0.556-0.309 0.002-0.558-0.247-0.558-0.555zM25.681 30.682c0 0.308-0.248 0.556-0.555 0.556-0.006 0-0.012 0-0.015 0h-18.235c-0.151 0-0.296-0.061-0.401-0.169s-0.16-0.254-0.155-0.405l0.716-22.403c0.009-0.3 0.256-0.538 0.556-0.538h16.802c0.3 0 0.547 0.236 0.556 0.538l0.712 22.275c0.012 0.046 0.020 0.096 0.020 0.146zM24.533 30.127l-0.68-21.292h-15.726l-0.678 21.292h17.083z" id="icons-tonicons-bag" /></defs><use xlink:href="#icons-tonicons-bag" fill-rule="evenodd" /></svg>