<svg xmlns="http://www.w3.org/2000/svg" xmlns:xlink="http://www.w3.org/1999/xlink" version="1.1" width="32" height="32" viewBox="0 0 32 32"><defs><path d="M0.762 14.747v-3.22c0-2.104 1.726-3.816 3.848-3.816h24.6l-5.851-5.906c-0.229-0.233-0.227-0.61 0.006-0.843s0.61-0.23 0.843 0.005l6.857 6.924c0.229 0.232 0.229 0.606 0.002 0.84l-6.859 6.927c-0.116 0.117-0.271 0.177-0.424 0.177-0.151 0-0.302-0.058-0.418-0.172-0.233-0.23-0.235-0.61-0.006-0.843l5.858-5.917h-24.608c-1.464 0-2.658 1.175-2.658 2.624v3.218c0 0.329-0.267 0.596-0.596 0.596-0.328 0-0.594-0.265-0.594-0.594zM30.641 16.655c-0.329 0-0.596 0.268-0.596 0.596v3.221c0 1.446-1.193 2.624-2.661 2.624h-24.606l5.853-5.917c0.232-0.233 0.23-0.61-0.005-0.841-0.233-0.232-0.611-0.23-0.841 0.005l-6.851 6.924c-0.23 0.232-0.23 0.605 0 0.838l6.854 6.929c0.116 0.117 0.27 0.175 0.422 0.175 0.151 0 0.305-0.056 0.419-0.171 0.233-0.23 0.238-0.608 0.003-0.843l-5.844-5.909h24.597c2.126 0 3.852-1.711 3.852-3.816v-3.221c0-0.328-0.267-0.594-0.597-0.594z" id="icons-tonicons-compare" /></defs><use xlink:href="#icons-tonicons-compare" fill-rule="evenodd" /></svg>