<svg xmlns="http://www.w3.org/2000/svg" xmlns:xlink="http://www.w3.org/1999/xlink" version="1.1" width="32" height="32" viewBox="0 0 32 32"><defs><path d="M12.347 1.464c0.084 0.285-0.079 0.584-0.364 0.667-5.973 1.763-10.146 7.348-10.146 13.583 0 5.126 2.74 9.794 7.179 12.312l-1.088-3.706c-0.084-0.285 0.079-0.585 0.366-0.667s0.584 0.079 0.667 0.364l1.496 5.094c0.043 0.143 0.021 0.297-0.055 0.425-0.076 0.13-0.203 0.221-0.349 0.25l-5.189 1.12c-0.040 0.009-0.076 0.014-0.114 0.014-0.25 0-0.472-0.172-0.527-0.424-0.062-0.291 0.122-0.578 0.413-0.64l3.93-0.85c-4.823-2.697-7.805-7.742-7.805-13.292 0-6.708 4.489-12.719 10.918-14.616 0.283-0.082 0.584 0.079 0.667 0.366zM23.432 2.991l3.928-0.849c0.29-0.064 0.475-0.349 0.413-0.64-0.061-0.291-0.349-0.475-0.638-0.413l-5.192 1.12c-0.146 0.032-0.273 0.123-0.349 0.251-0.078 0.128-0.094 0.283-0.053 0.427l1.495 5.093c0.069 0.235 0.283 0.387 0.517 0.387 0.050 0 0.101-0.008 0.152-0.023 0.285-0.084 0.45-0.384 0.366-0.667l-1.090-3.704c4.437 2.517 7.179 7.185 7.179 12.312 0 6.235-4.172 11.819-10.146 13.582-0.285 0.085-0.448 0.384-0.363 0.669 0.069 0.233 0.283 0.386 0.515 0.386 0.050 0 0.101-0.008 0.155-0.023 6.426-1.897 10.917-7.906 10.917-14.615 0-5.547-2.982-10.594-7.806-13.292z" id="icons-tonicons-cycle" /></defs><use xlink:href="#icons-tonicons-cycle" fill-rule="evenodd" /></svg>