<svg xmlns="http://www.w3.org/2000/svg" xmlns:xlink="http://www.w3.org/1999/xlink" version="1.1" width="32" height="32" viewBox="0 0 32 32"><defs><path d="M31.224 4.968c-0.005-0.037-0.011-0.073-0.021-0.108-0.012-0.032-0.027-0.062-0.043-0.091-0.018-0.030-0.035-0.058-0.058-0.084-0.024-0.030-0.052-0.053-0.084-0.078-0.017-0.012-0.027-0.029-0.044-0.040-0.012-0.005-0.023-0.005-0.032-0.012-0.034-0.017-0.069-0.026-0.105-0.035-0.034-0.011-0.069-0.018-0.102-0.021-0.014-0.002-0.024-0.008-0.037-0.008h-29.397c-0.015 0-0.027 0.006-0.038 0.008-0.032 0.005-0.066 0.011-0.098 0.020-0.040 0.012-0.073 0.021-0.11 0.038-0.008 0.008-0.018 0.008-0.030 0.012-0.018 0.011-0.029 0.027-0.044 0.040-0.032 0.024-0.061 0.047-0.084 0.078-0.023 0.024-0.041 0.053-0.056 0.082-0.017 0.029-0.034 0.058-0.046 0.091-0.009 0.035-0.015 0.072-0.020 0.108-0.003 0.021-0.014 0.041-0.014 0.062v21.94c0 0.297 0.241 0.539 0.539 0.539h29.396c0.299 0 0.539-0.241 0.539-0.539v-21.94c0.002-0.021-0.009-0.041-0.012-0.062zM30.161 25.283c-1.361-2.018-4.482-6.232-8.794-9.606 4.232-2.85 7.307-6.735 8.794-8.855v18.461zM1.839 6.822c1.489 2.12 4.561 6.002 8.792 8.852-4.308 3.368-7.429 7.576-8.792 9.6v-18.452zM15.998 17.202c-7-2.418-12.11-9.271-13.707-11.633h27.416c-1.597 2.362-6.706 9.214-13.71 11.633zM11.59 16.29c1.317 0.8 2.732 1.493 4.238 1.996 0.002 0 0.003 0 0.003 0 0.055 0.018 0.11 0.027 0.166 0.027 0.058 0 0.113-0.009 0.166-0.027 0.003 0 0.005 0 0.005 0 1.504-0.503 2.918-1.193 4.233-1.996 4.753 3.624 8.149 8.494 9.225 10.142h-27.258c1.076-1.649 4.471-6.519 9.222-10.142z" id="icons-tonicons-envelope" /></defs><use xlink:href="#icons-tonicons-envelope" fill-rule="evenodd" /></svg>