<svg xmlns="http://www.w3.org/2000/svg" xmlns:xlink="http://www.w3.org/1999/xlink" version="1.1" width="32" height="32" viewBox="0 0 32 32"><defs><path d="M31.138 15.802c-3.56-4.802-8.497-10.315-15.142-10.315-5.536 0-9.888 3.896-15.115 10.181-0.158 0.19-0.158 0.469 0.002 0.658l0.443 0.53c4.337 5.181 8.082 9.655 14.67 9.655 6.603 0 11.535-5.833 14.799-9.693l0.322-0.379c0.154-0.181 0.162-0.446 0.021-0.637zM30.010 16.155c-3.33 3.938-7.889 9.33-14.014 9.33-6.107 0-9.711-4.303-13.88-9.288l-0.169-0.201c5.035-6.011 8.984-9.481 14.051-9.481 6.040 0 10.677 5.044 14.072 9.573l-0.059 0.067zM15.998 10.862c-2.833 0-5.138 2.306-5.138 5.138s2.306 5.138 5.138 5.138c2.834 0 5.14-2.306 5.14-5.138s-2.306-5.138-5.14-5.138zM15.998 20.113c-2.267 0-4.113-1.845-4.113-4.113s1.845-4.111 4.113-4.111 4.111 1.844 4.111 4.111c0 2.267-1.844 4.113-4.111 4.113z" id="icons-tonicons-eye" /></defs><use xlink:href="#icons-tonicons-eye" fill-rule="evenodd" /></svg>