<svg xmlns="http://www.w3.org/2000/svg" xmlns:xlink="http://www.w3.org/1999/xlink" version="1.1" width="32" height="32" viewBox="0 0 32 32"><defs><path d="M4.689 18.278v11.578c0 0.334-0.271 0.603-0.603 0.603s-0.603-0.271-0.603-0.603v-11.578c0-0.334 0.271-0.603 0.603-0.603 0.332 0.002 0.603 0.27 0.603 0.603zM4.085 10.208c0.334 0 0.603-0.271 0.603-0.603v-7.461c0-0.334-0.271-0.603-0.603-0.603s-0.603 0.27-0.603 0.603v7.461c0 0.332 0.271 0.603 0.603 0.603zM7.45 13.95c0 1.844-1.499 3.345-3.343 3.345s-3.345-1.501-3.345-3.345c0-1.844 1.499-3.343 3.343-3.343s3.345 1.499 3.345 3.343zM6.242 13.95c0-1.176-0.957-2.135-2.135-2.135-1.175 0-2.135 0.958-2.135 2.135 0 1.178 0.96 2.136 2.135 2.136 1.178 0 2.135-0.958 2.135-2.136zM16.032 24.422c-0.335 0-0.605 0.271-0.605 0.603v4.829c0 0.334 0.271 0.603 0.605 0.603s0.603-0.271 0.603-0.603v-4.829c0-0.332-0.271-0.603-0.603-0.603zM16.032 17.146c0.334 0 0.603-0.271 0.603-0.603v-14.398c0-0.334-0.271-0.603-0.603-0.603-0.335 0-0.605 0.27-0.605 0.603v14.398c-0.002 0.332 0.27 0.603 0.605 0.603zM19.291 20.789c0 1.786-1.454 3.238-3.24 3.238s-3.24-1.452-3.24-3.238 1.454-3.24 3.24-3.24 3.24 1.454 3.24 3.24zM18.083 20.789c0-1.118-0.91-2.031-2.031-2.031-1.118 0-2.031 0.913-2.031 2.031s0.913 2.030 2.031 2.030c1.123 0 2.031-0.911 2.031-2.030zM27.974 13.95c-0.332 0-0.603 0.271-0.603 0.603v15.301c0 0.334 0.271 0.603 0.603 0.603 0.335 0 0.603-0.271 0.603-0.603v-15.299c0.002-0.334-0.268-0.605-0.603-0.605zM27.974 6.699c0.335 0 0.603-0.271 0.603-0.605v-3.95c0-0.334-0.27-0.603-0.603-0.603-0.332 0-0.603 0.27-0.603 0.603v3.95c0.002 0.334 0.273 0.605 0.603 0.605zM31.238 10.33c0 1.786-1.452 3.24-3.24 3.24-1.786 0-3.24-1.454-3.24-3.24s1.454-3.238 3.24-3.238c1.787 0 3.24 1.452 3.24 3.238zM30.030 10.33c0-1.12-0.911-2.031-2.031-2.031-1.118 0-2.031 0.911-2.031 2.031s0.913 2.031 2.031 2.031c1.12 0 2.031-0.911 2.031-2.031z" id="icons-tonicons-filter" /></defs><use xlink:href="#icons-tonicons-filter" fill-rule="evenodd" /></svg>