<svg xmlns="http://www.w3.org/2000/svg" xmlns:xlink="http://www.w3.org/1999/xlink" version="1.1" width="32" height="32" viewBox="0 0 32 32"><defs><path d="M16.014 29.344c-0.239 0-0.451-0.158-0.518-0.389-0.297-1.027-2.519-3.97-5.883-6.174-0.517-0.338-1.071-0.67-1.641-1.015-3.227-1.944-7.244-4.367-7.208-9.481 0.044-6.321 3.998-9.629 7.881-9.629 3.006 0 5.69 1.81 7.351 4.901 1.63-2.976 4.376-4.782 7.378-4.782 3.756 0 7.82 2.956 7.866 9.451 0.034 4.914-3.611 7.182-6.827 9.182-0.715 0.445-1.388 0.864-2.004 1.301-3.136 2.219-5.611 5.219-5.871 6.231-0.062 0.233-0.273 0.399-0.515 0.404-0.005 0-0.006 0-0.009 0zM8.643 3.733c-3.247 0-6.763 2.679-6.804 8.558-0.032 4.501 3.537 6.654 6.688 8.552 0.582 0.35 1.147 0.692 1.675 1.036 2.766 1.812 4.855 4.128 5.81 5.693 1.048-1.682 3.407-4.069 5.772-5.742 0.642-0.456 1.33-0.882 2.059-1.336 3.121-1.943 6.35-3.953 6.318-8.261-0.040-5.762-3.546-8.384-6.789-8.384-2.894 0-5.531 1.973-6.883 5.152-0.087 0.2-0.28 0.328-0.495 0.328v0c-0.216 0-0.411-0.128-0.494-0.326-1.416-3.299-3.977-5.269-6.857-5.269z" id="icons-tonicons-heart" /></defs><use xlink:href="#icons-tonicons-heart" fill-rule="evenodd" /></svg>