<svg xmlns="http://www.w3.org/2000/svg" xmlns:xlink="http://www.w3.org/1999/xlink" viewBox="0 0 30.48 26.68"><defs><path d="M31.24,12.23c0,4.91-3.61,7.18-6.83,9.18-.71.44-1.38.86-2,1.3-3.14,2.22-5.61,5.22-5.87,6.23a.54.54,0,0,1-.52.4h0A.51.51,0,0,1,15.5,29c-.3-1-2.52-4-5.89-6.17-.51-.34-1.07-.67-1.64-1C4.75,19.82.73,17.4.76,12.29.81,6,4.76,2.66,8.65,2.66c3,0,5.69,1.81,7.35,4.9a8.52,8.52,0,0,1,7.37-4.78C27.13,2.78,31.19,5.73,31.24,12.23Z" transform="translate(-0.76 -2.66)" id="icons-tonicons-heart-fill" /></defs><use xlink:href="#icons-tonicons-heart-fill" fill-rule="evenodd" /></svg>