<svg xmlns="http://www.w3.org/2000/svg" xmlns:xlink="http://www.w3.org/1999/xlink" version="1.1" width="32" height="32" viewBox="0 0 32 32"><defs><path d="M20.158 0.762c-2.368 0-4.294 1.926-4.294 4.293s1.928 4.291 4.294 4.291c2.365 0 4.288-1.925 4.288-4.291s-1.923-4.293-4.288-4.293zM20.158 8.341c-1.815 0-3.293-1.475-3.293-3.287 0-1.813 1.478-3.288 3.293-3.288 1.81 0 3.284 1.475 3.284 3.288 0.002 1.812-1.472 3.287-3.284 3.287zM18.299 10.874c-0.675-0.568-1.396-0.856-2.139-0.856-2.138 0-4.226 2.434-6.167 5.061-0.146 0.2-0.125 0.475 0.049 0.652s0.451 0.197 0.652 0.052c1.044-0.765 2.377-1.579 3.035-1.79-0.387 1.080-1.934 4.163-3.304 6.892-1.609 3.206-2.598 5.195-2.758 5.775-0.242 0.89-0.14 2.324 0.661 3.372 0.602 0.791 1.484 1.207 2.554 1.207 1.701 0 3.849-1.048 6.385-3.121 0.178-0.146 0.235-0.396 0.137-0.603s-0.325-0.322-0.553-0.277c-0.012 0.003-1.379 0.271-2.802 0.271-0.076 0-0.168-0.011-0.192-0.052-0.078-0.134-0.334-1.009 2.121-5.213 2.427-4.163 4.884-9.216 2.321-11.369zM12.986 27.954c0.119 0.209 0.414 0.556 1.062 0.556 0.378 0 0.748-0.018 1.094-0.044-2.072 1.432-3.436 1.769-4.261 1.769-0.754 0-1.346-0.273-1.755-0.812-0.562-0.733-0.67-1.835-0.489-2.499 0.143-0.526 1.435-3.101 2.685-5.589 1.492-2.974 3.037-6.048 3.39-7.112 0.050-0.152 0.206-0.614-0.055-0.974-0.087-0.117-0.285-0.315-0.674-0.315-0.349 0-0.84 0.184-1.361 0.446 1.193-1.347 2.423-2.36 3.535-2.36 0.507 0 0.997 0.204 1.495 0.622 2.246 1.885-1.359 8.064-2.543 10.095-2.545 4.36-2.472 5.612-2.124 6.217z" id="icons-tonicons-help" /></defs><use xlink:href="#icons-tonicons-help" fill-rule="evenodd" /></svg>