<svg xmlns="http://www.w3.org/2000/svg" xmlns:xlink="http://www.w3.org/1999/xlink" version="1.1" width="32" height="32" viewBox="0 0 32 32"><defs><path d="M21.821 20.991c-0.089-0.071-0.2-0.117-0.321-0.126 2.059-2.21 3.324-5.186 3.324-8.457 0-6.856-5.558-12.415-12.415-12.415s-12.415 5.558-12.415 12.415c0 6.856 5.558 12.415 12.415 12.415 3.271 0 6.246-1.265 8.464-3.332 0.004 0.125 0.050 0.232 0.12 0.317l10.024 10.024c0.104 0.104 0.248 0.169 0.408 0.169 0.318 0 0.577-0.258 0.577-0.577 0-0.159-0.065-0.303-0.169-0.408v0zM20.415 20.401c-2.036 2.038-4.85 3.299-7.958 3.299-6.212 0-11.248-5.036-11.248-11.248s5.036-11.248 11.248-11.248c6.209 0 11.243 5.031 11.248 11.238 0 0.003 0 0.006 0 0.009 0 3.104-1.257 5.914-3.29 7.949l0-0z" id="icons-tonicons-search" /></defs><use xlink:href="#icons-tonicons-search" fill-rule="evenodd" /></svg>