<svg xmlns="http://www.w3.org/2000/svg" xmlns:xlink="http://www.w3.org/1999/xlink" version="1.1" width="32" height="32" viewBox="0 0 32 32"><defs><path d="M24.654 30.854c-0.245 0-0.503-0.062-0.766-0.187l-6.726-3.128c-0.594-0.274-1.725-0.274-2.316 0l-6.729 3.128c-0.654 0.306-1.309 0.218-1.69-0.218-0.187-0.215-0.395-0.603-0.311-1.243l0.922-7.301c0.081-0.678-0.256-1.705-0.719-2.193l-5.077-5.381c-0.418-0.451-0.573-0.975-0.422-1.438s0.582-0.795 1.182-0.914l7.305-1.391c0.666-0.122 1.539-0.753 1.873-1.353l4.335-7.8c0.099-0.178 0.286-0.288 0.494-0.288v0c0.204 0 0.392 0.111 0.491 0.291l4.326 7.8c0.335 0.597 1.207 1.228 1.87 1.349l7.296 1.393c0.606 0.117 1.044 0.451 1.193 0.916 0.148 0.466-0.011 0.989-0.434 1.437l-5.062 5.379c-0.472 0.497-0.808 1.521-0.722 2.191l0.923 7.304c0.084 0.64-0.123 1.030-0.312 1.243-0.227 0.259-0.555 0.405-0.922 0.405zM16 26.196c0.606 0 1.19 0.113 1.635 0.322l6.728 3.128c0.149 0.069 0.312 0.122 0.369 0.059 0.027-0.032 0.069-0.143 0.038-0.357l-0.923-7.301c-0.13-1.006 0.318-2.373 1.021-3.113l5.062-5.376c0.172-0.184 0.184-0.297 0.18-0.317-0.008-0.020-0.085-0.107-0.334-0.155l-7.29-1.391c-0.984-0.178-2.149-1.019-2.645-1.909l-3.835-6.914-3.84 6.912c-0.497 0.891-1.664 1.733-2.651 1.912l-7.298 1.39c-0.244 0.049-0.317 0.134-0.325 0.155-0.006 0.020 0.005 0.134 0.174 0.318l5.073 5.378c0.69 0.73 1.137 2.089 1.018 3.104l-0.922 7.307c-0.029 0.215 0.012 0.325 0.040 0.357 0.035 0.044 0.13 0.053 0.366-0.059l6.729-3.128c0.446-0.207 1.026-0.322 1.632-0.322z" id="icons-tonicons-star" /></defs><use xlink:href="#icons-tonicons-star" fill-rule="evenodd" /></svg>