<svg xmlns="http://www.w3.org/2000/svg" xmlns:xlink="http://www.w3.org/1999/xlink" version="1.1" width="32" height="32" viewBox="0 0 32 32"><defs><path d="M31.072 30.264c0.222 0.222 0.222 0.584 0 0.806-0.11 0.11-0.256 0.166-0.402 0.166-0.148 0-0.293-0.056-0.405-0.166l-14.264-14.264-14.263 14.264c-0.113 0.111-0.258 0.168-0.404 0.168s-0.293-0.056-0.404-0.166c-0.224-0.222-0.224-0.584 0-0.806l14.266-14.266-14.266-14.264c-0.224-0.222-0.224-0.584 0-0.806 0.222-0.222 0.584-0.222 0.806 0l14.263 14.264 14.264-14.264c0.222-0.222 0.584-0.222 0.806 0s0.222 0.584 0 0.806l-14.263 14.264 14.266 14.264z" id="icons-tonicons-x" /></defs><use xlink:href="#icons-tonicons-x" fill-rule="evenodd" /></svg>