<?xml version="1.0" encoding="UTF-8"?><svg id="Ebene_1" xmlns="http://www.w3.org/2000/svg" viewBox="0 0 235.79 64.22"><g><path d="m16.47,64.22c-3.08,0-5.63-.4-7.65-1.2-2.02-.8-3.62-1.76-4.8-2.88-1.18-1.12-2.03-2.23-2.55-3.33-.52-1.1-.8-1.97-.84-2.61-.04-.44.1-.8.42-1.08.32-.28.7-.42,1.14-.42h7.62c.36,0,.67.09.93.27.26.18.47.49.63.93.2.44.47.9.81,1.38.34.48.82.87,1.44,1.17.62.3,1.47.45,2.55.45,1.2,0,2.2-.19,3-.57.8-.38,1.4-1,1.8-1.86.4-.86.6-2.01.6-3.45v-4.02c-.92,1-2.1,1.81-3.54,2.43s-3.18.93-5.22.93-3.84-.3-5.4-.9c-1.56-.6-2.86-1.5-3.9-2.7-1.04-1.2-1.85-2.66-2.43-4.38-.58-1.72-.93-3.7-1.05-5.94-.04-1.04-.04-2.08,0-3.12.12-2.16.46-4.1,1.02-5.82.56-1.72,1.37-3.2,2.43-4.44,1.06-1.24,2.37-2.19,3.93-2.85,1.56-.66,3.36-.99,5.4-.99,2.16,0,4.01.41,5.55,1.23,1.54.82,2.81,1.85,3.81,3.09v-2.22c0-.4.14-.75.42-1.05.28-.3.64-.45,1.08-.45h6.9c.44,0,.81.15,1.11.45.3.3.45.65.45,1.05v28.86c0,3.04-.62,5.6-1.86,7.68-1.24,2.08-3.02,3.66-5.34,4.74-2.32,1.08-5.14,1.62-8.46,1.62Zm-.42-21.66c1.28,0,2.32-.28,3.12-.84.8-.56,1.39-1.28,1.77-2.16.38-.88.59-1.82.63-2.82.04-.44.06-1.06.06-1.86s-.02-1.4-.06-1.8c-.04-1.04-.25-2-.63-2.88-.38-.88-.97-1.59-1.77-2.13-.8-.54-1.84-.81-3.12-.81s-2.37.28-3.15.84c-.78.56-1.34,1.32-1.68,2.28-.34.96-.55,2.02-.63,3.18-.04.88-.04,1.78,0,2.7.08,1.16.29,2.22.63,3.18.34.96.9,1.72,1.68,2.28s1.83.84,3.15.84Z" style="fill:#1d1d1c;"/><path d="m40.71,51.02c-.44,0-.8-.14-1.08-.42-.28-.28-.42-.64-.42-1.08v-28.2c0-.4.14-.75.42-1.05.28-.3.64-.45,1.08-.45h6.9c.44,0,.8.15,1.08.45.28.3.42.65.42,1.05v2.4c1.08-1.24,2.37-2.2,3.87-2.88,1.5-.68,3.19-1.02,5.07-1.02h2.64c.4,0,.75.14,1.05.42.3.28.45.64.45,1.08v6.18c0,.4-.15.75-.45,1.05-.3.3-.65.45-1.05.45h-5.82c-1.64,0-2.91.45-3.81,1.35s-1.35,2.17-1.35,3.81v15.36c0,.44-.15.8-.45,1.08-.3.28-.67.42-1.11.42h-7.44Z" style="fill:#1d1d1c;"/><path d="m75.27,51.62c-2.16,0-4.09-.41-5.79-1.23-1.7-.82-3.05-1.93-4.05-3.33-1-1.4-1.5-2.98-1.5-4.74,0-2.84,1.16-5.09,3.48-6.75,2.32-1.66,5.4-2.79,9.24-3.39l7.5-1.14v-.84c0-1.44-.3-2.54-.9-3.3-.6-.76-1.7-1.14-3.3-1.14-1.12,0-2.03.22-2.73.66-.7.44-1.25,1.04-1.65,1.8-.36.52-.86.78-1.5.78h-6.72c-.44,0-.78-.13-1.02-.39-.24-.26-.34-.57-.3-.93,0-.72.27-1.55.81-2.49.54-.94,1.37-1.87,2.49-2.79,1.12-.92,2.56-1.68,4.32-2.28,1.76-.6,3.88-.9,6.36-.9s4.82.3,6.66.9c1.84.6,3.33,1.44,4.47,2.52s1.99,2.35,2.55,3.81c.56,1.46.84,3.07.84,4.83v18.24c0,.44-.15.8-.45,1.08-.3.28-.65.42-1.05.42h-6.96c-.44,0-.8-.14-1.08-.42-.28-.28-.42-.64-.42-1.08v-2.1c-.52.76-1.22,1.46-2.1,2.1-.88.64-1.91,1.15-3.09,1.53-1.18.38-2.55.57-4.11.57Zm2.82-6.84c1.16,0,2.21-.25,3.15-.75.94-.5,1.68-1.28,2.22-2.34.54-1.06.81-2.39.81-3.99v-.84l-5.1.9c-1.88.32-3.25.81-4.11,1.47-.86.66-1.29,1.43-1.29,2.31,0,.68.2,1.26.6,1.74.4.48.92.85,1.56,1.11.64.26,1.36.39,2.16.39Z" style="fill:#1d1d1c;"/><path d="m111.51,51.02c-.6,0-1.04-.15-1.32-.45-.28-.3-.52-.65-.72-1.05l-11.34-27.84c-.08-.16-.12-.34-.12-.54,0-.36.13-.67.39-.93.26-.26.59-.39.99-.39h6.78c.52,0,.92.14,1.2.42.28.28.46.56.54.84l6.78,18.42,6.84-18.42c.08-.28.26-.56.54-.84.28-.28.68-.42,1.2-.42h6.78c.36,0,.68.13.96.39.28.26.42.57.42.93,0,.2-.04.38-.12.54l-11.34,27.84c-.16.4-.39.75-.69,1.05-.3.3-.77.45-1.41.45h-6.36Z" style="fill:#1d1d1c;"/><path d="m137.55,15.32c-.44,0-.8-.14-1.08-.42-.28-.28-.42-.64-.42-1.08v-5.34c0-.44.14-.81.42-1.11.28-.3.64-.45,1.08-.45h7.14c.44,0,.81.15,1.11.45.3.3.45.67.45,1.11v5.34c0,.44-.15.8-.45,1.08-.3.28-.67.42-1.11.42h-7.14Zm.06,35.7c-.44,0-.8-.14-1.08-.42-.28-.28-.42-.64-.42-1.08v-28.2c0-.44.14-.8.42-1.08.28-.28.64-.42,1.08-.42h7.08c.4,0,.75.14,1.05.42.3.28.45.64.45,1.08v28.2c0,.44-.15.8-.45,1.08-.3.28-.65.42-1.05.42h-7.08Z" style="fill:#1d1d1c;"/><path d="m169.17,51.02c-2.56,0-4.77-.41-6.63-1.23-1.86-.82-3.29-2.1-4.29-3.84s-1.5-3.99-1.5-6.75v-11.52h-4.68c-.44,0-.81-.14-1.11-.42-.3-.28-.45-.64-.45-1.08v-4.86c0-.44.15-.8.45-1.08.3-.28.67-.42,1.11-.42h4.68v-9.9c0-.44.15-.8.45-1.08.3-.28.65-.42,1.05-.42h6.96c.44,0,.8.14,1.08.42.28.28.42.64.42,1.08v9.9h7.5c.44,0,.8.14,1.08.42.28.28.42.64.42,1.08v4.86c0,.44-.14.8-.42,1.08-.28.28-.64.42-1.08.42h-7.5v10.68c0,1.36.26,2.44.78,3.24.52.8,1.4,1.2,2.64,1.2h4.62c.44,0,.8.14,1.08.42.28.28.42.64.42,1.08v5.22c0,.44-.14.8-.42,1.08s-.64.42-1.08.42h-5.58Z" style="fill:#1d1d1c;"/><path d="m187.05,62.42c-.36,0-.66-.12-.9-.36-.24-.24-.36-.54-.36-.9,0-.08,0-.19.03-.33.02-.14.07-.29.15-.45l4.68-11.28-11.52-27.24c-.12-.28-.18-.52-.18-.72.08-.36.24-.67.48-.93.24-.26.54-.39.9-.39h6.84c.52,0,.91.13,1.17.39.26.26.43.55.51.87l6.9,17.46,7.02-17.46c.16-.32.37-.61.63-.87s.65-.39,1.17-.39h6.72c.36,0,.67.13.93.39.26.26.39.55.39.87,0,.2-.06.46-.18.78l-16.98,39.3c-.12.32-.32.61-.6.87-.28.26-.68.39-1.2.39h-6.6Z" style="fill:#1d1d1c;"/></g><path d="m212.88,36.25c-.84.47-1.21.14-.83-.75l7.84-18.1c.39-.89,1.42-1.3,2.31-.91l12.9,5.59c.89.38.92,1.09.08,1.56l-22.3,12.61Z" style="fill:#ffd400;"/><path d="m226.19,19.06c-.38.89-1.42,1.3-2.32.92l-12.9-5.59c-.89-.38-.93-1.09-.08-1.56L233.21.22c.84-.47,1.22-.14.83.75l-7.84,18.09Z" style="fill:#ffd400;"/></svg>