<?xml version="1.0" encoding="utf-8"?>
<!-- Generator: Adobe Illustrator 16.0.0, SVG Export Plug-In . SVG Version: 6.00 Build 0)  -->
<!DOCTYPE svg PUBLIC "-//W3C//DTD SVG 1.1//EN" "http://www.w3.org/Graphics/SVG/1.1/DTD/svg11.dtd">
<svg version="1.1" id="Ebene_1" xmlns="http://www.w3.org/2000/svg" xmlns:xlink="http://www.w3.org/1999/xlink" x="0px" y="0px"
	 width="146.86px" height="32.104px" viewBox="0 0 146.86 32.104" enable-background="new 0 0 146.86 32.104" xml:space="preserve">
<g>
	<path fill="#FFFFFF" d="M21.852,13.624v17.94h-2.113l-0.405-3.508c-2.638,2.697-5.771,4.047-9.397,4.047
		c-3.537,0-6.078-1.273-7.621-3.822C0.771,25.734,0,21.643,0,16.006C0,9.982,0.914,5.808,2.742,3.485S7.808,0,12.455,0
		c3.417,0,6.324,0.285,8.722,0.854l-0.359,2.203c-2.698-0.3-5.425-0.45-8.183-0.45c-2.458,0-4.347,0.376-5.665,1.125
		c-1.32,0.749-2.293,2.091-2.923,4.023c-0.629,1.934-0.944,4.729-0.944,8.386c0,4.855,0.569,8.304,1.709,10.341
		c1.138,2.04,3.102,3.058,5.89,3.058c1.109,0,2.204-0.194,3.283-0.584s1.94-0.794,2.585-1.214c0.645-0.42,1.446-1.004,2.405-1.755
		V13.624H21.852z"/>
	<path fill="#FFFFFF" d="M46.4,31.564h-4.227l-2.742-9.712c-0.39-1.17-0.915-2.001-1.574-2.496c-0.66-0.495-1.514-0.741-2.563-0.741
		s-2.331-0.008-3.844-0.023c-1.514-0.015-2.511-0.022-2.99-0.022v12.995h-3.912V0.539c2.518-0.27,6.085-0.404,10.701-0.404
		c3.687,0,6.279,0.637,7.779,1.911c1.498,1.274,2.248,3.62,2.248,7.036c0,2.549-0.442,4.451-1.326,5.71
		c-0.885,1.26-2.346,2.024-4.384,2.293v0.226c0.839,0.21,1.603,0.697,2.293,1.462c0.689,0.764,1.199,1.761,1.529,2.989L46.4,31.564z
		 M28.46,15.197h6.7c2.338-0.029,3.941-0.45,4.811-1.258c0.869-0.812,1.304-2.354,1.304-4.632c0-2.248-0.435-3.77-1.304-4.564
		c-0.87-0.793-2.473-1.191-4.811-1.191c-3.298,0-5.53,0.017-6.7,0.045V15.197z"/>
	<path fill="#FFFFFF" d="M90.129,0.539l-9.172,29.766c-0.271,0.841-0.839,1.26-1.709,1.26h-4.406c-0.87,0-1.438-0.419-1.708-1.26
		L63.961,0.539h4.631l7.014,24.145c0.149,0.57,0.434,1.709,0.854,3.418h1.214c0.18-0.869,0.464-2.008,0.854-3.418l6.969-24.145
		H90.129z"/>
	<path fill="#FFFFFF" d="M93.266,31.564h-5.62V0.539h5.62V31.564z"/>
	<path fill="#FFFFFF" d="M120.693,6.115h-9.262v25.449h-6.879V6.115h-9.262V0.539h25.404V6.115z"/>
	<path fill="#FFFFFF" d="M136.609,21.897v9.667h-9.756v-9.578L116.556,0.539h10.027l3.911,9.758c0.27,0.66,0.585,2.112,0.944,4.361
		h0.584c0.36-2.188,0.675-3.657,0.944-4.407l3.867-9.712h10.026L136.609,21.897z"/>
</g>
<path fill="#FFFFFF" d="M43.019,31.564L52.19,1.799c0.27-0.84,0.84-1.26,1.709-1.26h4.406c0.87,0,1.439,0.42,1.709,1.26
	l9.172,29.766h-4.631L57.541,7.419c-0.149-0.57-0.434-1.709-0.854-3.417h-1.213c-0.18,0.868-0.464,2.008-0.854,3.417l-6.969,24.146
	H43.019z"/>
</svg>
