<svg xmlns="http://www.w3.org/2000/svg" xmlns:xlink="http://www.w3.org/1999/xlink" version="1.1" width="20" height="20" viewBox="0 0 20 20"><defs><path d="M17.84,16.84a1.67,1.67,0,1,0,0,2.36A1.62,1.62,0,0,0,18.33,18,1.66,1.66,0,0,0,17.84,16.84Zm-9.18,0a1.67,1.67,0,1,0,0,2.36A1.62,1.62,0,0,0,9.15,18a1.66,1.66,0,0,0-.49-1.18ZM20,5.66l-1.34,7a2.51,2.51,0,0,1-2.49,2H8.06a2.51,2.51,0,0,1-2.5-2l-1.39-7h0v0h0v0l-.7-3.48H.81A.84.84,0,0,1,0,1.31.83.83,0,0,1,.81.5H4.15A.82.82,0,0,1,5,1.17l.7,3.5H19.17l.15,0A.84.84,0,0,1,20,5.66Z" transform="translate(0 -0.5)" id="icons-entypo-bag" /></defs><use xlink:href="#icons-entypo-bag" fill-rule="evenodd" /></svg>