<svg xmlns="http://www.w3.org/2000/svg" xmlns:xlink="http://www.w3.org/1999/xlink" viewBox="0 0 24 24"><defs><g id="icons-heroicons-outline-avatar"><path d="M12,10.5A4.5,4.5,0,1,1,16.5,6,4.51,4.51,0,0,1,12,10.5ZM12,3a3,3,0,1,0,3,3A3,3,0,0,0,12,3Z" /><path d="M12,22.5a18.55,18.55,0,0,1-7.81-1.7.76.76,0,0,1-.44-.69,8.25,8.25,0,0,1,16.5,0,.76.76,0,0,1-.44.69A18.55,18.55,0,0,1,12,22.5ZM5.28,19.64a17.31,17.31,0,0,0,13.44,0,6.75,6.75,0,0,0-13.44,0Z" /></g></defs><use xlink:href="#icons-heroicons-outline-avatar" /></svg>