<svg xmlns="http://www.w3.org/2000/svg" xmlns:xlink="http://www.w3.org/1999/xlink" viewBox="0 0 24 24"><defs><path d="M19.75,22.5H4.25a1.89,1.89,0,0,1-1.87-2.07l1.27-12A1.87,1.87,0,0,1,5.51,6.75h2V6a4.5,4.5,0,0,1,9,0v.75h2a1.87,1.87,0,0,1,1.86,1.68h0l1.27,12a1.89,1.89,0,0,1-1.87,2.07ZM5.51,8.25a.37.37,0,0,0-.37.34l-1.26,12a.37.37,0,0,0,.09.29.39.39,0,0,0,.28.12h15.5a.39.39,0,0,0,.28-.12.37.37,0,0,0,.09-.29l-1.26-12a.37.37,0,0,0-.37-.34h-2V9.66a1.13,1.13,0,1,1-1.5,0V8.25H9V9.66a1.13,1.13,0,1,1-1.5,0V8.25ZM9,6.75h6V6A3,3,0,0,0,9,6Z" id="icons-heroicons-outline-bag" /></defs><use xlink:href="#icons-heroicons-outline-bag" /></svg>