<svg xmlns="http://www.w3.org/2000/svg" xmlns:xlink="http://www.w3.org/1999/xlink" viewBox="0 0 24 24"><defs><path d="M18,21H10.5a3,3,0,0,1-3-3v-.75H6a3,3,0,0,1-3-3V6A3,3,0,0,1,6,3h8.25a3,3,0,0,1,3,3V7.5H18a3,3,0,0,1,3,3V18A3,3,0,0,1,18,21ZM9,16.5V18a1.5,1.5,0,0,0,1.5,1.5H18A1.5,1.5,0,0,0,19.5,18V10.5A1.5,1.5,0,0,0,18,9H10.5A1.5,1.5,0,0,0,9,10.5ZM6,4.5A1.5,1.5,0,0,0,4.5,6v8.25A1.5,1.5,0,0,0,6,15.75H7.5V10.5a3,3,0,0,1,3-3h5.25V6a1.5,1.5,0,0,0-1.5-1.5Z" id="icons-heroicons-outline-compare" /></defs><use xlink:href="#icons-heroicons-outline-compare" /></svg>