<svg xmlns="http://www.w3.org/2000/svg" xmlns:xlink="http://www.w3.org/1999/xlink" viewBox="0 0 24 24"><defs><path d="M19.5,20.25H4.5a3,3,0,0,1-3-3V6.75a3,3,0,0,1,3-3h15a3,3,0,0,1,3,3v10.5A3,3,0,0,1,19.5,20.25ZM3,9.59v7.66a1.5,1.5,0,0,0,1.5,1.5h15a1.5,1.5,0,0,0,1.5-1.5V9.59l-7.43,4.57a3,3,0,0,1-3.14,0ZM3,7a1.51,1.51,0,0,0,.71,1.28l7.5,4.62a1.54,1.54,0,0,0,1.58,0l7.5-4.62A1.51,1.51,0,0,0,21,7V6.75a1.5,1.5,0,0,0-1.5-1.5H4.5A1.5,1.5,0,0,0,3,6.75Z" id="icons-heroicons-outline-envelope" /></defs><use xlink:href="#icons-heroicons-outline-envelope" /></svg>