<svg xmlns="http://www.w3.org/2000/svg" xmlns:xlink="http://www.w3.org/1999/xlink" viewBox="0 0 24 24"><defs><g id="icons-heroicons-outline-eye-open"><path d="M12,20.25A11.25,11.25,0,0,1,1.32,12.56a1.76,1.76,0,0,1,0-1.11,11.26,11.26,0,0,1,21.36,0,1.83,1.83,0,0,1,0,1.11A11.25,11.25,0,0,1,12,20.25Zm0-15a9.72,9.72,0,0,0-9.25,6.67.22.22,0,0,0,0,.16h0a9.75,9.75,0,0,0,18.5,0,.22.22,0,0,0,0-.16A9.73,9.73,0,0,0,12,5.25Z" /><path d="M12,15.75A3.75,3.75,0,1,1,15.75,12,3.75,3.75,0,0,1,12,15.75Zm0-6A2.25,2.25,0,1,0,14.25,12,2.25,2.25,0,0,0,12,9.75Z" /></g></defs><use xlink:href="#icons-heroicons-outline-eye-open" /></svg>