<svg xmlns="http://www.w3.org/2000/svg" xmlns:xlink="http://www.w3.org/1999/xlink" viewBox="0 0 24 24"><defs><path d="M9.75,21.75a.77.77,0,0,1-.39-.11A.74.74,0,0,1,9,21V14.43a1.5,1.5,0,0,0-.44-1.06L3.13,7.94a3,3,0,0,1-.88-2.12V4.77A1.85,1.85,0,0,1,3.79,2.94a49.45,49.45,0,0,1,16.42,0,1.85,1.85,0,0,1,1.54,1.83V5.82a3,3,0,0,1-.88,2.12l-5.43,5.43A1.5,1.5,0,0,0,15,14.43v2.93A3,3,0,0,1,13.34,20l-3.25,1.63A.84.84,0,0,1,9.75,21.75ZM12,3.75a47,47,0,0,0-8,.67.35.35,0,0,0-.29.35V5.82a1.5,1.5,0,0,0,.44,1.06l5.43,5.43a3,3,0,0,1,.88,2.12v5.36l2.17-1.09a1.49,1.49,0,0,0,.83-1.34V14.43a3,3,0,0,1,.88-2.12l5.43-5.43a1.52,1.52,0,0,0,.44-1.06V4.77A.35.35,0,0,0,20,4.42,47,47,0,0,0,12,3.75Z" id="icons-heroicons-outline-filter" /></defs><use xlink:href="#icons-heroicons-outline-filter" /></svg>