<svg xmlns="http://www.w3.org/2000/svg" xmlns:xlink="http://www.w3.org/1999/xlink" viewBox="0 0 24 24"><defs><g id="icons-heroicons-outline-heart"><path d="M12,21a.73.73,0,0,1-.35-.09c-.39-.2-9.4-5.08-9.4-12.66A5.36,5.36,0,0,1,7.69,3,5.52,5.52,0,0,1,12,5.05a5.52,5.52,0,0,1,4.31-2,5.36,5.36,0,0,1,5.44,5.25c0,7.58-9,12.46-9.4,12.66A.73.73,0,0,1,12,21ZM7.69,4.5A3.85,3.85,0,0,0,3.75,8.25c0,5.91,6.63,10.18,8.25,11.14,1.62-1,8.25-5.25,8.25-11.14A3.85,3.85,0,0,0,16.31,4.5a3.93,3.93,0,0,0-3.62,2.29.79.79,0,0,1-1.38,0A3.93,3.93,0,0,0,7.69,4.5Z" /></g></defs><use xlink:href="#icons-heroicons-outline-heart" /></svg>