<svg xmlns="http://www.w3.org/2000/svg" xmlns:xlink="http://www.w3.org/1999/xlink" viewBox="0 0 24 24"><defs><g id="icons-heroicons-outline-help"><path d="M12,21.75A9.75,9.75,0,1,1,21.75,12,9.76,9.76,0,0,1,12,21.75Zm0-18A8.25,8.25,0,1,0,20.25,12,8.26,8.26,0,0,0,12,3.75ZM12,18a.76.76,0,0,1,0-1.51h0a.76.76,0,0,1,.75.75A.76.76,0,0,1,12,18Zm0-3a.76.76,0,0,1-.75-.75V13.5A2.93,2.93,0,0,1,13.12,11a2.23,2.23,0,0,0,.51-.33,1.66,1.66,0,0,0,0-2.59,2.59,2.59,0,0,0-3.26,0A.75.75,0,1,1,9.39,7a4.09,4.09,0,0,1,5.23,0,3.17,3.17,0,0,1,0,4.85,4.06,4.06,0,0,1-.84.55c-.5.24-1,.67-1,1.15v.75A.76.76,0,0,1,12,15Z" /></g></defs><use xlink:href="#icons-heroicons-outline-help" /></svg>