<svg xmlns="http://www.w3.org/2000/svg" xmlns:xlink="http://www.w3.org/1999/xlink" viewBox="0 0 24 24"><defs><g id="icons-iconic-avatar"><path d="M12,12a4,4,0,1,1,4-4A4,4,0,0,1,12,12Zm0-6.5A2.5,2.5,0,1,0,14.5,8,2.5,2.5,0,0,0,12,5.5Z" /><path d="M17.15,20H6.85a2.46,2.46,0,0,1-2.12-1.12,2,2,0,0,1,0-2c.88-1.67,2.86-3.66,7.3-3.66s6.42,2,7.3,3.66a2,2,0,0,1,0,2A2.46,2.46,0,0,1,17.15,20ZM12,14.75c-3.69,0-5.29,1.55-6,2.86a.48.48,0,0,0,0,.49,1,1,0,0,0,.83.4h10.3a1,1,0,0,0,.83-.4.48.48,0,0,0,0-.49C17.29,16.3,15.69,14.75,12,14.75Z" /></g></defs><use xlink:href="#icons-iconic-avatar" /></svg>