<svg xmlns="http://www.w3.org/2000/svg" xmlns:xlink="http://www.w3.org/1999/xlink" viewBox="0 0 24 24"><defs><g id="icons-iconic-bag"><path d="M15.67,17H11.54A2.75,2.75,0,0,1,8.88,15L7,8v0L6.41,5.5H4.75a.75.75,0,0,1,0-1.5H7a.76.76,0,0,1,.73.57L8.34,7H19.25a.74.74,0,0,1,.59.28.77.77,0,0,1,.14.64l-1.64,7A2.73,2.73,0,0,1,15.67,17ZM8.72,8.5l1.61,6.07a1.25,1.25,0,0,0,1.21.93h4.13a1.24,1.24,0,0,0,1.21-1l1.42-6Z" /><circle cx="10" cy="19" r="1" /><circle cx="17" cy="19" r="1" /></g></defs><use xlink:href="#icons-iconic-bag" /></svg>