<svg xmlns="http://www.w3.org/2000/svg" xmlns:xlink="http://www.w3.org/1999/xlink" viewBox="0 0 16 16"><defs><g id="icons-iconic-compare"><path d="M12,14a.75.75,0,0,1-.38-.1L4.37,9.65a.76.76,0,0,1,0-1.3L11.62,4.1a.79.79,0,0,1,.76,0l7.25,4.25a.76.76,0,0,1,0,1.3L12.38,13.9A.75.75,0,0,1,12,14ZM6.23,9,12,12.38,17.77,9,12,5.62Z" transform="translate(-4 -4)" /><path d="M12,20a.75.75,0,0,1-.38-.1L4.37,15.65A.77.77,0,0,1,4,15a.74.74,0,0,1,.33-.64l4.5-3a.75.75,0,0,1,.84,1.24L6.16,15,12,18.38,17.83,15l-3.57-2.34a.76.76,0,0,1-.22-1,.75.75,0,0,1,1-.22l4.58,3A.74.74,0,0,1,20,15a.77.77,0,0,1-.37.63L12.38,19.9A.75.75,0,0,1,12,20Z" transform="translate(-4 -4)" /></g></defs><use xlink:href="#icons-iconic-compare" /></svg>