<svg xmlns="http://www.w3.org/2000/svg" xmlns:xlink="http://www.w3.org/1999/xlink" viewBox="0 0 24 24"><defs><g id="icons-iconic-envelope"><path d="M17.25,19H6.75A2.75,2.75,0,0,1,4,16.25V7.75A2.75,2.75,0,0,1,6.75,5h10.5A2.75,2.75,0,0,1,20,7.75v8.5A2.75,2.75,0,0,1,17.25,19ZM6.75,6.5A1.25,1.25,0,0,0,5.5,7.75v8.5A1.25,1.25,0,0,0,6.75,17.5h10.5a1.25,1.25,0,0,0,1.25-1.25V7.75A1.25,1.25,0,0,0,17.25,6.5Z" /><path d="M12,13a.75.75,0,0,1-.5-.19L5,7.06A.75.75,0,0,1,6,5.94l6,5.31,6-5.31a.75.75,0,1,1,1,1.12l-6.5,5.75A.75.75,0,0,1,12,13Z" /></g></defs><use xlink:href="#icons-iconic-envelope" /></svg>