<svg xmlns="http://www.w3.org/2000/svg" xmlns:xlink="http://www.w3.org/1999/xlink" viewBox="0 0 24 24"><defs><path d="M13.25,20h-2.5A1.75,1.75,0,0,1,9,18.25V11.7a1.29,1.29,0,0,0-.27-.78L4.16,5.22a.76.76,0,0,1-.09-.79A.76.76,0,0,1,4.75,4h14.5a.76.76,0,0,1,.68.43.76.76,0,0,1-.09.79l-4.57,5.7a1.29,1.29,0,0,0-.27.78v6.55A1.75,1.75,0,0,1,13.25,20ZM6.31,5.5,9.9,10a2.77,2.77,0,0,1,.6,1.72v6.55a.25.25,0,0,0,.25.25h2.5a.25.25,0,0,0,.25-.25V11.7A2.77,2.77,0,0,1,14.1,10L17.69,5.5Z" id="icons-iconic-filter" /></defs><use xlink:href="#icons-iconic-filter" /></svg>