<svg xmlns="http://www.w3.org/2000/svg" xmlns:xlink="http://www.w3.org/1999/xlink" viewBox="0 0 24 24"><defs><path d="M12,19a.74.74,0,0,1-.51-.2L5.16,12.94l-.08-.08A4.82,4.82,0,0,1,12,6.19a4.74,4.74,0,0,1,6.15-.12,4.75,4.75,0,0,1,.77,6.79.6.6,0,0,1-.08.08L12.5,18.8A.74.74,0,0,1,12,19ZM6.22,11.88,12,17.23l5.77-5.35a3.24,3.24,0,0,0-.56-4.63,3.35,3.35,0,0,0-4.66.48.76.76,0,0,1-1.11,0,3.31,3.31,0,0,0-4.65-.49A3.27,3.27,0,0,0,6.22,11.88Z" id="icons-iconic-heart" /></defs><use xlink:href="#icons-iconic-heart" /></svg>