<svg xmlns="http://www.w3.org/2000/svg" xmlns:xlink="http://www.w3.org/1999/xlink" viewBox="0 0 24 24"><defs><g id="icons-iconic-help"><path d="M12,20a8,8,0,1,1,8-8A8,8,0,0,1,12,20ZM12,5.5A6.5,6.5,0,1,0,18.5,12,6.51,6.51,0,0,0,12,5.5Z" /><path d="M12,14a.76.76,0,0,1-.75-.75V13a2.08,2.08,0,0,1,1.46-1.87A1.18,1.18,0,0,0,13.5,10c0-1-.24-1.5-1.5-1.5S10.5,10,10.5,10.08A.75.75,0,0,1,9,9.92,3.13,3.13,0,0,1,12,7a2.69,2.69,0,0,1,3,3,2.7,2.7,0,0,1-1.75,2.53c-.29.11-.5.31-.5.47v.25A.76.76,0,0,1,12,14Z" /><path d="M12,17a1,1,0,1,1,1-1A1,1,0,0,1,12,17Zm0-1Z" /></g></defs><use xlink:href="#icons-iconic-help" /></svg>