<svg xmlns="http://www.w3.org/2000/svg" xmlns:xlink="http://www.w3.org/1999/xlink" viewBox="0 0 24 24"><defs><path d="M16.25,20a.78.78,0,0,1-.48-.17L12,16.72,8.23,19.83A.75.75,0,0,1,7,19.05L8.4,14l-4.11-3.2A.75.75,0,0,1,4,10a.74.74,0,0,1,.71-.51H9.7l1.59-5a.74.74,0,0,1,1.42,0l1.59,5h4.95A.74.74,0,0,1,20,10a.75.75,0,0,1-.25.83L15.61,14l1.36,5a.75.75,0,0,1-.31.83A.78.78,0,0,1,16.25,20ZM12,15a.78.78,0,0,1,.48.17l2.43,2L14,14a.74.74,0,0,1,.26-.79L17.06,11H13.75a.73.73,0,0,1-.71-.52L12,7.22l-1,3.26a.73.73,0,0,1-.71.52H6.94l2.77,2.16A.74.74,0,0,1,10,14l-.88,3.22,2.43-2A.78.78,0,0,1,12,15Z" id="icons-iconic-star" /></defs><use xlink:href="#icons-iconic-star" /></svg>