<svg xmlns="http://www.w3.org/2000/svg" xmlns:xlink="http://www.w3.org/1999/xlink" version="1.1" width="32" height="32" viewBox="0 0 32 32"><defs><path d="M26.667 12q1.656 0 2.828 1.172t1.172 2.828-1.172 2.828-2.828 1.172-2.828-1.172-1.172-2.828 1.172-2.828 2.828-1.172zM5.333 12q1.656 0 2.828 1.172t1.172 2.828-1.172 2.828-2.828 1.172-2.828-1.172-1.172-2.828 1.172-2.828 2.828-1.172zM5.333 14.667q-0.552 0-0.943 0.391t-0.391 0.943 0.391 0.943 0.943 0.391 0.943-0.391 0.391-0.943-0.391-0.943-0.943-0.391zM16 12q1.656 0 2.828 1.172t1.172 2.828-1.172 2.828-2.828 1.172-2.828-1.172-1.172-2.828 1.172-2.828 2.828-1.172zM16 14.667q-0.552 0-0.943 0.391t-0.391 0.943 0.391 0.943 0.943 0.391 0.943-0.391 0.391-0.943-0.391-0.943-0.943-0.391zM26.667 14.667q-0.552 0-0.943 0.391t-0.391 0.943 0.391 0.943 0.943 0.391 0.943-0.391 0.391-0.943-0.391-0.943-0.943-0.391z" id="icons-simple-more" /></defs><use xlink:href="#icons-simple-more" fill-rule="evenodd" /></svg>