<svg xmlns="http://www.w3.org/2000/svg" xmlns:xlink="http://www.w3.org/1999/xlink" version="1.1" width="32" height="32" viewBox="0 0 32 32"><defs><path d="M26.533 17.2c0.133-0.267 0.133-0.667 0-1.067-0.133-0.133-0.133-0.267-0.267-0.4l-9.333-9.333c-0.533-0.533-1.333-0.533-1.867 0s-0.533 1.333 0 1.867l7.067 7.067h-15.467c-0.8 0-1.333 0.533-1.333 1.333s0.533 1.333 1.333 1.333h15.467l-7.067 7.067c-0.533 0.533-0.533 1.333 0 1.867 0.267 0.267 0.667 0.4 0.933 0.4s0.667-0.133 0.933-0.4l9.333-9.333c0.133-0.133 0.267-0.267 0.267-0.4z" id="icons-feather-arrow-right" /></defs><use xlink:href="#icons-feather-arrow-right" fill-rule="evenodd" /></svg>