<svg xmlns="http://www.w3.org/2000/svg" xmlns:xlink="http://www.w3.org/1999/xlink" version="1.1" width="32" height="32" viewBox="0 0 32 32"><defs><path d="M28.5,18.1L16.8,29.9c-0.3,0.3-0.5,0.4-0.9,0.4s-0.7-0.1-0.9-0.4L3.2,18.1c-1.6-1.6-2.5-3.9-2.5-6.1c0-2.3,1.1-4.5,2.7-6.1c1.6-1.6,3.7-2.5,6-2.5c2.4,0,4.5,0.9,6.1,2.5L16,6.4l0.5-0.5c0.8-0.8,1.8-1.4,2.8-1.9c1.1-0.4,2.2-0.7,3.3-0.7c2.3,0,4.4,0.9,6,2.5C32.1,9.2,32.1,14.8,28.5,18.1z" id="icons-feather-heart-fill"/></defs><use xlink:href="#icons-feather-heart-fill" fill-rule="evenodd" /></svg>