<svg xmlns="http://www.w3.org/2000/svg" xmlns:xlink="http://www.w3.org/1999/xlink" version="1.1" width="32" height="32" viewBox="0 0 32 32"><defs><path d="M28 15.333h-24c-0.8 0-1.333 0.533-1.333 1.333s0.533 1.333 1.333 1.333h24c0.8 0 1.333-0.533 1.333-1.333s-0.533-1.333-1.333-1.333zM4 10h24c0.8 0 1.333-0.533 1.333-1.333s-0.533-1.333-1.333-1.333h-24c-0.8 0-1.333 0.533-1.333 1.333s0.533 1.333 1.333 1.333zM28 23.333h-24c-0.8 0-1.333 0.533-1.333 1.333s0.533 1.333 1.333 1.333h24c0.8 0 1.333-0.533 1.333-1.333s-0.533-1.333-1.333-1.333z" id="icons-feather-stack" /></defs><use xlink:href="#icons-feather-stack" fill-rule="evenodd" /></svg>