<svg xmlns="http://www.w3.org/2000/svg" xmlns:xlink="http://www.w3.org/1999/xlink" version="1.1" width="32" height="32" viewBox="0 0 32 32"><defs><path d="M17.867 16.667l7.067-7.067c0.533-0.533 0.533-1.333 0-1.867s-1.333-0.533-1.867 0l-7.067 7.067-7.067-7.067c-0.533-0.533-1.333-0.533-1.867 0s-0.533 1.333 0 1.867l7.067 7.067-7.067 7.067c-0.533 0.533-0.533 1.333 0 1.867 0.267 0.267 0.533 0.4 0.933 0.4s0.667-0.133 0.933-0.4l7.067-7.067 7.067 7.067c0.267 0.267 0.667 0.4 0.933 0.4s0.667-0.133 0.933-0.4c0.533-0.533 0.533-1.333 0-1.867l-7.067-7.067z" id="icons-feather-x" /></defs><use xlink:href="#icons-feather-x" fill-rule="evenodd" /></svg>