<svg xmlns="http://www.w3.org/2000/svg" xmlns:xlink="http://www.w3.org/1999/xlink" viewBox="0 0 512 512"><defs><g id="icons-ionicons-outline-avatar"><path d="M256,256c-52.87,0-99.51-49.72-104-110.84-2.25-31,7.32-59.66,27-80.78C198.42,43.5,225.76,32,256,32c30,0,57.33,11.57,76.84,32.58,19.76,21.28,29.39,49.9,27.12,80.6h0C355.43,206.29,308.79,256,256,256Zm0-192c-21.25,0-40.27,7.88-53.57,22.18-13.51,14.53-20.07,34.65-18.47,56.66,3.2,44,36.19,81.16,72,81.16s68.78-37.18,72-81.18h0c1.61-21.73-5-41.78-18.65-56.46C296,71.94,277,64,256,64Zm88,80h0Z" /><path d="M432,480H80a31,31,0,0,1-24.2-11.13c-6.5-7.78-9.12-18.39-7.19-29.11,8.45-46.82,34.8-86.15,76.2-113.75,36.77-24.51,83.36-38,131.19-38s94.42,13.5,131.19,38c41.41,27.6,67.76,66.93,76.21,113.75,1.93,10.72-.69,21.33-7.19,29.11A31,31,0,0,1,432,480ZM80.2,448H431.81a5.21,5.21,0,0,0,.09-2.56c-6.86-38.05-28.46-70.14-62.46-92.8C337.87,331.59,297.58,320,256,320s-81.87,11.59-113.44,32.64c-34,22.66-55.59,54.75-62.45,92.8A5.22,5.22,0,0,0,80.2,448Zm-.44,0Zm352.49,0Z" /></g></defs><use xlink:href="#icons-ionicons-outline-avatar" fill-rule="evenodd" /></svg>