<svg xmlns="http://www.w3.org/2000/svg" xmlns:xlink="http://www.w3.org/1999/xlink" id="icons" viewBox="0 0 512 512"><defs><g id="icons-ionicons-outline-bag"><path d="M392,480H120c-39,0-72-33-72-72V192a32,32,0,0,1,32-32H432a32,32,0,0,1,32,32V409.25a69.48,69.48,0,0,1-21.52,50.2A72.22,72.22,0,0,1,392,480ZM80,192h0l0,216c0,21.31,18.69,40,40,40H392c21.68,0,40-17.74,40-38.75V192Z" /><path d="M352,192a16,16,0,0,1-16-16V144a80,80,0,0,0-160,0v32a16,16,0,0,1-32,0V144a112,112,0,0,1,224,0v32A16,16,0,0,1,352,192Z" /><path d="M256,352A112.12,112.12,0,0,1,144,240V224a16,16,0,0,1,32,0v16a80,80,0,0,0,160,0V224a16,16,0,0,1,32,0v16A112.12,112.12,0,0,1,256,352Z" /></g></defs><use xlink:href="#icons-ionicons-outline-bag" fill-rule="evenodd" /></svg>