<svg xmlns="http://www.w3.org/2000/svg" xmlns:xlink="http://www.w3.org/1999/xlink" viewBox="0 0 512 512"><defs><g id="icons-ionicons-outline-compare"><path d="M256.09,256c-13.47,0-26.93-2.39-37.43-7.17l-148-67.5c-6.77-3.08-22.56-12.09-22.56-29.1s15.79-26,22.58-29.12L219.92,55c20.56-9.4,51.6-9.4,72.17,0l149.35,68.09c6.8,3.09,22.55,12.1,22.57,29.09s-15.72,26-22.48,29.11l-148,67.51C283,253.58,269.56,256,256.09,256ZM84,152.2l148,67.48c12.64,5.77,35.66,5.77,48.3,0l147.93-67.47h0L278.8,84.11c-11.94-5.46-33.66-5.46-45.59,0Zm348.81,2.91h0Z" /><path d="M256.09,464c-13.47,0-26.93-2.39-37.42-7.17l-148-67.5c-6.77-3.08-22.56-12.09-22.56-29.11s15.79-26,22.58-29.12l82.77-37.14a16,16,0,1,1,13.1,29.2L84,360.18l148,67.49c12.63,5.75,35.66,5.75,48.31,0l148-67.49-.28-.13L348,321.58a16,16,0,1,1,13.88-28.84l79.8,38.4c6.88,3.16,22.4,12.17,22.4,29s-15.79,26-22.58,29.12l-148,67.49C283,461.57,269.55,464,256.09,464Z" /><path d="M256,360c-13.47,0-26.93-2.39-37.43-7.17l-148-67.49C63.79,282.22,48,273.21,48,256.19s15.79-26,22.58-29.12l82.87-37.19a16,16,0,1,1,13.1,29.2L83.86,256.19l148,67.48c12.64,5.76,35.66,5.76,48.3,0l148-67.49h0l-82.72-37.09a16,16,0,0,1,13.1-29.2L441.43,227c6.86,3.12,22.66,12.14,22.64,29.16s-15.88,26-22.7,29.12L293.42,352.79C282.92,357.57,269.46,360,256,360Z" /></g></defs><use xlink:href="#icons-ionicons-outline-compare" fill-rule="evenodd" /></svg>