<svg xmlns="http://www.w3.org/2000/svg" xmlns:xlink="http://www.w3.org/1999/xlink" viewBox="0 0 512 512"><defs><g id="icons-ionicons-outline-cycle"><path d="M256,470C159,470,80,391.05,80,294S159,118,256,118c25.63,0,44,1,56.29,3,6.91,1.11,23.11,3.74,26.32,17.53,2,8.68-2.61,17.48-11.54,21.87a16,16,0,0,1-21.42-7.28,8.84,8.84,0,0,1-.38-.83C297.55,151.17,283,150,256,150c-79.4,0-144,64.6-144,144s64.6,144,144,144,144-64.6,144-144a16,16,0,0,1,32,0C432,391.05,353.05,470,256,470Z" /><path d="M256,234a16,16,0,0,1-11.31-27.31L313.37,138,244.69,69.31a16,16,0,0,1,22.62-22.62l80,80a16,16,0,0,1,0,22.62l-80,80A15.92,15.92,0,0,1,256,234Z" /></g></defs><use xlink:href="#icons-ionicons-outline-cycle" fill-rule="evenodd" /></svg>