<svg xmlns="http://www.w3.org/2000/svg" xmlns:xlink="http://www.w3.org/1999/xlink" viewBox="0 0 512 512"><defs><g id="icons-ionicons-outline-envelope"><path d="M423.52,448h-335C57.35,448,32,422.88,32,392V207.39a55.69,55.69,0,0,1,31.36-50.15L238.05,71A40.85,40.85,0,0,1,274,71l174.71,86.23A55.65,55.65,0,0,1,480,207.33V392C480,422.88,454.68,448,423.52,448ZM256,98.84a8.53,8.53,0,0,0-3.79.88L77.48,186A23.86,23.86,0,0,0,64,207.45V392c0,13.23,11,24,24.52,24h335C437,416,448,405.23,448,392V207.39A23.84,23.84,0,0,0,434.58,186l-.06,0L259.79,99.72A8.53,8.53,0,0,0,256,98.84Z" /><path d="M109.34,384a16,16,0,0,1-9.83-28.63L228.78,254.83a40,40,0,0,1,49.11,0L407.15,355.37a16,16,0,0,1-19.64,25.26L258.25,280.09a8,8,0,0,0-9.83,0L119.15,380.63A15.94,15.94,0,0,1,109.34,384Z" /><path d="M309.34,311a16,16,0,0,1-9.67-28.75l136-103A16,16,0,0,1,455,204.76l-136,103A16,16,0,0,1,309.34,311Z" /><path d="M200.32,313a15.91,15.91,0,0,1-9.63-3.23l-139-105A16,16,0,0,1,71,179.23l139,105A16,16,0,0,1,200.32,313Z" /></g></defs><use xlink:href="#icons-ionicons-outline-envelope" fill-rule="evenodd" /></svg>