<svg xmlns="http://www.w3.org/2000/svg" xmlns:xlink="http://www.w3.org/1999/xlink" viewBox="0 0 512 512"><defs><g id="icons-ionicons-outline-eye-open"><path d="M255.66,416c-47.75,0-93.61-14-136.3-41.63-37.89-24.51-71.88-59.32-98.28-100.66a31.89,31.89,0,0,1,.58-35.47c32.1-46,69-81.7,109.73-106.13C171.33,108.15,213.14,96,255.66,96,302,96,349,110.55,391.58,138.07c38.47,24.85,72.81,59.6,99.3,100.51a32.22,32.22,0,0,1,0,34.83c-26.32,41.2-60.58,76.1-99.05,100.87C349.47,401.57,302.37,416,255.66,416Zm0-288c-36.64,0-72.91,10.62-107.81,31.55C111,181.65,77.41,214.26,48,256.48c24,37.51,54.72,69,88.79,91,37.43,24.22,77.44,36.5,118.92,36.5,41.14,0,81.13-12.32,118.88-36.63,34.62-22.29,65.54-53.84,89.42-91.23.07-.09.07-.15,0-.2-24-37.1-55.08-68.58-89.78-91C336.24,140.43,296.35,128,255.66,128Z" /><path d="M256,352a96,96,0,1,1,96-96A96.11,96.11,0,0,1,256,352Zm0-160a64,64,0,1,0,64,64A64.07,64.07,0,0,0,256,192Z" /></g></defs><use xlink:href="#icons-ionicons-outline-eye-open" fill-rule="evenodd" /></svg>