<svg xmlns="http://www.w3.org/2000/svg" xmlns:xlink="http://www.w3.org/1999/xlink" viewBox="0 0 479.96 415.99"><defs><path d="M296,464a23.87,23.87,0,0,1-7.58-1.24l-80.12-26.66A23.9,23.9,0,0,1,192,413.25V294.11l-.09-.13L23.26,97.54A30,30,0,0,1,46,48H466a30,30,0,0,1,22.74,49.54L320.14,294l-.12.14h0V440a23.95,23.95,0,0,1-24,24Zm2.53-31.6h0ZM224,407.58l64,21.29v-135a32.09,32.09,0,0,1,7.91-20.75L461.62,80H50.38L216.17,273.11A32.11,32.11,0,0,1,224,293.89V407.58ZM46.06,80h0Z" transform="translate(-16.02 -48)" id="icons-ionicons-outline-filter" /></defs><use xlink:href="#icons-ionicons-outline-filter" fill-rule="evenodd" /></svg>