<svg xmlns="http://www.w3.org/2000/svg" xmlns:xlink="http://www.w3.org/1999/xlink" viewBox="0 0 512 512"><defs><path d="M256,448a32,32,0,0,1-18-5.58c-78.58-53.34-112.62-89.92-131.38-112.8-40-48.74-59.16-98.8-58.62-153C48.64,114.53,98.47,64,159.08,64c48.09,0,80,29.55,96.92,51,16.88-21.48,48.83-51,96.92-51C413.53,64,463.36,114.53,464,176.65c.54,54.21-18.64,104.26-58.62,153-18.77,22.88-52.8,59.46-131.39,112.81A32,32,0,0,1,256,448ZM159.08,96C115.93,96,80.46,132.32,80,177c-1,104.66,88.37,179.56,176,239C343.62,356.52,433,281.62,432,177c-.46-44.65-35.93-81-79.08-81-22.26,0-42.73,9-60.86,26.69a123,123,0,0,0-21.77,28.51,16,16,0,0,1-28.6,0,123,123,0,0,0-21.75-28.47C201.81,105,181.34,96,159.08,96Z" id="icons-ionicons-outline-heart" /></defs><use xlink:href="#icons-ionicons-outline-heart" fill-rule="evenodd" /></svg>