<svg xmlns="http://www.w3.org/2000/svg" xmlns:xlink="http://www.w3.org/1999/xlink" viewBox="0 0 512 512"><defs><g id="icons-ionicons-outline-help"><path d="M256,448C150.13,448,64,361.87,64,256S150.13,64,256,64s192,86.13,192,192S361.87,448,256,448Zm0-352C167.78,96,96,167.78,96,256s71.78,160,160,160,160-71.78,160-160S344.22,96,256,96Z" /><path d="M251,310a14,14,0,0,1-14-14c0-21.94,10.09-39.37,30.83-53.29C287.1,229.79,298,221.6,298,203.54c0-12.26-7-21.57-21.49-28.45-3.41-1.62-11-3.22-20.33-3.09-11.73.17-20.84,3-27.83,8.62C215.19,191.22,214,202.75,214,203.24c0-.18,0-.28,0-.28l-28-1.34c.11-2.44,1.8-24.32,24.77-42.81,11.87-9.55,27-14.54,45-14.81,12.72-.17,24.66,2,32.76,5.81C312.7,161.31,326,180.39,326,203.54c0,33.88-23.61,49.71-42.57,62.43C267.23,276.83,265,286.82,265,296A14,14,0,0,1,251,310Z" /><circle cx="250" cy="348" r="20" /></g></defs><use xlink:href="#icons-ionicons-outline-help" fill-rule="evenodd" /></svg>