<svg xmlns="http://www.w3.org/2000/svg" xmlns:xlink="http://www.w3.org/1999/xlink" viewBox="0 0 512 512"><defs><g id="icons-ionicons-outline-search"><path d="M221.09,394.18C125.65,394.18,48,316.53,48,221.09S125.65,48,221.09,48h0c95.44,0,173.08,77.65,173.09,173.09S316.53,394.18,221.09,394.18Zm0-314.18C143.29,80,80,143.29,80,221.09s63.29,141.09,141.09,141.09,141.09-63.29,141.09-141.09S298.88,80,221.09,80Z" /><path d="M448,464a15.92,15.92,0,0,1-11.31-4.69L327,349.6A16,16,0,0,1,349.6,327L459.31,436.69A16,16,0,0,1,448,464Z" /></g></defs><use xlink:href="#icons-ionicons-outline-search" fill-rule="evenodd" /></svg>