<svg xmlns="http://www.w3.org/2000/svg" xmlns:xlink="http://www.w3.org/1999/xlink" viewBox="0 0 512 512"><defs><path id="icons-ionicons-outline-stack" d="M432,368H80c-8.8,0-16-7.2-16-16s7.2-16,16-16h352c8.8,0,16,7.2,16,16 S440.8,368,432,368z M432,272H80c-8.8,0-16-7.2-16-16s7.2-16,16-16h352c8.8,0,16,7.2,16,16S440.8,272,432,272z M432,176H80 c-8.8,0-16-7.2-16-16s7.2-16,16-16h352c8.8,0,16,7.2,16,16S440.8,176,432,176z"/></defs><use xlink:href="#icons-ionicons-outline-stack" fill-rule="evenodd" /></svg>