<svg xmlns="http://www.w3.org/2000/svg" xmlns:xlink="http://www.w3.org/1999/xlink" viewBox="0 0 512 512"><defs><path d="M394,480a16,16,0,0,1-9.39-3L256,383.76,127.39,477a16,16,0,0,1-24.55-18.08L153,310.35,23,221.2A16,16,0,0,1,32,192H192.38l48.4-148.95a16,16,0,0,1,30.44,0l48.4,149H480a16,16,0,0,1,9.05,29.2L359,310.35l50.13,148.53A16,16,0,0,1,394,480ZM256,348a16,16,0,0,1,9.39,3l97.43,70.61-38-112.53A16,16,0,0,1,331,290.8L428.38,224H308A16,16,0,0,1,292.78,213L256,99.77,219.22,213A16,16,0,0,1,204,224H83.63l97.42,66.8a16,16,0,0,1,6.11,18.32l-38,112.53L246.61,351A16,16,0,0,1,256,348Z" id="icons-ionicons-outline-star" /></defs><use xlink:href="#icons-ionicons-outline-star" fill-rule="evenodd" /></svg>