<svg xmlns="http://www.w3.org/2000/svg" xmlns:xlink="http://www.w3.org/1999/xlink" version="1.1" width="32" height="32" viewBox="0 0 32 32"><defs><path d="M16 17.979c3.688 0 6.688-2.938 6.688-6.625h-2.688c0 2.188-1.813 4-4 4s-4-1.813-4-4h-2.688c0 3.688 3 6.625 6.688 6.625zM16 4.667c-2.188 0-4 1.813-4 4h8c0-2.188-1.813-4-4-4zM25.313 8.667c1.438 0 2.688 1.25 2.688 2.688v16c0 1.438-1.25 2.625-2.688 2.625h-18.625c-1.438 0-2.688-1.188-2.688-2.625v-16c0-1.438 1.25-2.688 2.688-2.688h2.625c0-3.688 3-6.688 6.688-6.688s6.688 3 6.688 6.688h2.625z" id="icons-material-bag" /></defs><use xlink:href="#icons-material-bag" fill-rule="evenodd" /></svg>