<svg xmlns="http://www.w3.org/2000/svg" xmlns:xlink="http://www.w3.org/1999/xlink" version="1.1" width="32" height="32" viewBox="0 0 32 32"><defs><path d="M25 10.979c1.063 1.625 1.688 3.625 1.688 5.688 0 5.875-4.813 10.688-10.688 10.688v4l-5.313-5.375 5.313-5.313v4c4.438 0 8-3.563 8-8 0-1.375-0.375-2.625-0.938-3.75zM16 8.667c-4.438 0-8 3.563-8 8 0 1.375 0.313 2.625 0.938 3.75l-1.938 1.938c-1.063-1.625-1.688-3.625-1.688-5.688 0-5.875 4.813-10.688 10.688-10.688v-4l5.313 5.375-5.313 5.313v-4z" id="icons-material-cycle" /></defs><use xlink:href="#icons-material-cycle" fill-rule="evenodd" /></svg>