<svg xmlns="http://www.w3.org/2000/svg" xmlns:xlink="http://www.w3.org/1999/xlink" version="1.1" width="32" height="32" viewBox="0 0 32 32"><defs><path d="M22.375 24.917l1.875-1.875-3.875-3.875c0.563-0.938 0.938-2 0.938-3.188 0-3.313-2.688-6-6-6s-6 2.688-6 6 2.688 6 6 6c1.188 0 2.25-0.375 3.188-0.938zM26.688 5.979c1.438 0 2.625 1.25 2.625 2.687v16c0 1.438-1.188 2.688-2.625 2.688h-21.375c-1.438 0-2.625-1.25-2.625-2.688v-16c0-1.438 1.188-2.688 2.625-2.688h21.375zM15.313 12.667c1.813 0 3.375 1.5 3.375 3.313s-1.563 3.375-3.375 3.375-3.313-1.563-3.313-3.375 1.5-3.313 3.313-3.313z" id="icons-material-eye" /></defs><use xlink:href="#icons-material-eye" fill-rule="evenodd" /></svg>