<svg xmlns="http://www.w3.org/2000/svg" xmlns:xlink="http://www.w3.org/1999/xlink" version="1.1" width="32" height="32" viewBox="0 0 32 32"><defs><path d="M12.688 19.354c3.313 0 6-2.688 6-6s-2.688-6-6-6-6 2.688-6 6 2.688 6 6 6zM20.688 19.354l6.625 6.625-2 2-6.625-6.625v-1.063l-0.375-0.375c-1.5 1.313-3.5 2.063-5.625 2.063-4.813 0-8.688-3.813-8.688-8.625s3.875-8.688 8.688-8.688 8.625 3.875 8.625 8.688c0 2.125-0.75 4.125-2.063 5.625l0.375 0.375h1.063z" id="icons-material-search" /></defs><use xlink:href="#icons-material-search" fill-rule="evenodd" /></svg>