<?xml version="1.0" encoding="UTF-8"?><svg id="Ebene_1" xmlns="http://www.w3.org/2000/svg" viewBox="0 0 280.8 61.6"><path d="m16.5,61.6c-3.1,0-5.6-.4-7.6-1.2s-3.7-1.7-4.9-2.9c-1.2-1.1-2-2.2-2.6-3.3-.5-1.1-.8-2-.8-2.6,0-.4.1-.8.4-1.1.3-.3.7-.4,1.1-.4h7.6c.4,0,.7.1.9.3s.5.5.6.9c.2.4.5.9.8,1.4s.8.9,1.4,1.2c.6.3,1.5.5,2.5.5,1.2,0,2.2-.2,3-.6s1.4-1,1.8-1.9.6-2,.6-3.5v-4c-.9,1-2.1,1.8-3.5,2.4s-3.2.9-5.2.9-3.6-.2-5.2-.8-2.9-1.5-3.9-2.7-1.9-2.7-2.4-4.4-.9-3.7-1-5.9v-3.1c.1-2.2.5-4.1,1-5.8s1.4-3.2,2.4-4.4,2.4-2.2,3.9-2.9c1.5-.7,3.4-1,5.4-1,2.2,0,4,.4,5.6,1.2s2.8,1.9,3.8,3.1v-2.2c0-.4.1-.8.4-1s.6-.5,1.1-.5h6.9c.4,0,.8.1,1.1.5.3.3.5.6.5,1v28.9c0,3-.6,5.6-1.9,7.7-1.2,2.1-3,3.7-5.3,4.7s-5.2,1.5-8.5,1.5Zm-.5-21.6c1.3,0,2.3-.3,3.1-.8s1.4-1.3,1.8-2.2.6-1.8.6-2.8c0-.4.1-1.1.1-1.9s0-1.4-.1-1.8c0-1-.2-2-.6-2.9s-1-1.6-1.8-2.1-1.8-.8-3.1-.8-2.4.3-3.1.8-1.3,1.3-1.7,2.3c-.3,1-.6,2-.6,3.2v2.7c.1,1.2.3,2.2.6,3.2s.9,1.7,1.7,2.3,1.8.8,3.1.8Z" style="fill:#fff; stroke-width:0px;"/><path d="m40.7,48.4c-.4,0-.8-.1-1.1-.4-.3-.3-.4-.6-.4-1.1v-28.2c0-.4.1-.8.4-1s.6-.5,1.1-.5h6.9c.4,0,.8.1,1.1.5.3.3.4.6.4,1v2.4c1.1-1.2,2.4-2.2,3.9-2.9,1.5-.7,3.2-1,5.1-1h2.6c.4,0,.8.1,1,.4s.5.6.5,1.1v6.2c0,.4-.2.8-.5,1s-.7.5-1,.5h-5.8c-1.6,0-2.9.5-3.8,1.4s-1.3,2.2-1.3,3.8v15.4c0,.4-.2.8-.5,1.1s-.7.4-1.1.4h-7.5v-.1Z" style="fill:#fff; stroke-width:0px;"/><path d="m75.3,49c-2.2,0-4.1-.4-5.8-1.2s-3.1-1.9-4.1-3.3-1.5-3-1.5-4.7c0-2.8,1.2-5.1,3.5-6.8s5.4-2.8,9.2-3.4l7.5-1.1v-.8c0-1.4-.3-2.5-.9-3.3s-1.7-1.1-3.3-1.1c-1.1,0-2,.2-2.7.7-.7.4-1.2,1-1.7,1.8-.4.5-.9.8-1.5.8h-6.7c-.4,0-.8-.1-1-.4s-.3-.8-.3-1.1c0-.7.3-1.5.8-2.5s1.4-1.9,2.5-2.8,2.6-1.7,4.3-2.3,3.9-.9,6.4-.9,4.8.3,6.7.9c1.8.6,3.3,1.4,4.5,2.5s2,2.4,2.6,3.8c.6,1.5.8,3.1.8,4.8v18.2c0,.4-.2.8-.4,1.1-.3.3-.7.4-1.1.4h-7c-.4,0-.8-.1-1.1-.4s-.4-.6-.4-1.1v-2.1c-.5.8-1.2,1.5-2.1,2.1s-1.9,1.2-3.1,1.5c-1.2.5-2.6.7-4.1.7Zm2.8-6.8c1.2,0,2.2-.2,3.2-.8s1.7-1.3,2.2-2.3.8-2.4.8-4v-.8l-5.1.9c-1.9.3-3.2.8-4.1,1.5s-1.3,1.4-1.3,2.3c0,.7.2,1.3.6,1.7.4.5.9.8,1.6,1.1.6.2,1.3.4,2.1.4Z" style="fill:#fff; stroke-width:0px;"/><path d="m111.5,48.4c-.6,0-1-.2-1.3-.5s-.5-.7-.7-1l-11.4-27.8c-.1-.2-.1-.3-.1-.5,0-.4.1-.7.4-.9s.6-.4,1-.4h6.8c.5,0,.9.1,1.2.4s.5.6.5.8l6.8,18.4,6.8-18.4c.1-.3.3-.6.5-.8s.7-.4,1.2-.4h6.8c.4,0,.7.1,1,.4s.4.6.4.9c0,.2,0,.4-.1.5l-11.3,27.8c-.2.4-.4.8-.7,1s-.8.5-1.4.5h-6.4Z" style="fill:#fff; stroke-width:0px;"/><path d="m137.6,12.7c-.4,0-.8-.1-1.1-.4s-.4-.6-.4-1.1v-5.3c0-.4.1-.8.4-1.1s.6-.4,1.1-.4h7.1c.4,0,.8.2,1.1.4.3.3.4.7.4,1.1v5.3c0,.4-.1.8-.4,1.1s-.7.4-1.1.4c0,0-7.1,0-7.1,0Zm0,35.7c-.4,0-.8-.1-1.1-.4s-.4-.6-.4-1.1v-28.2c0-.4.1-.8.4-1.1s.6-.4,1.1-.4h7.1c.4,0,.8.1,1.1.4s.4.6.4,1.1v28.2c0,.4-.1.8-.4,1.1-.3.3-.6.4-1.1.4h-7.1Z" style="fill:#fff; stroke-width:0px;"/><path d="m169.2,48.4c-2.6,0-4.8-.4-6.6-1.2s-3.3-2.1-4.3-3.8-1.5-4-1.5-6.8v-11.5h-4.7c-.4,0-.8-.1-1.1-.4s-.4-.6-.4-1.1v-4.9c0-.4.1-.8.4-1.1s.7-.4,1.1-.4h4.7V7.3c0-.4.1-.8.4-1.1s.6-.4,1.1-.4h7c.4,0,.8.1,1.1.4s.4.6.4,1.1v9.9h7.5c.4,0,.8.1,1.1.4s.4.6.4,1.1v4.9c0,.4-.1.8-.4,1.1s-.6.4-1.1.4h-7.5v10.7c0,1.4.3,2.4.8,3.2s1.4,1.2,2.6,1.2h4.6c.4,0,.8.1,1.1.4s.4.6.4,1.1v5.2c0,.4-.1.8-.4,1.1s-.6.4-1.1.4h-5.6Z" style="fill:#fff; stroke-width:0px;"/><path d="m187.1,59.8c-.4,0-.7-.1-.9-.4-.2-.2-.4-.5-.4-.9v-.3c0-.1.1-.3.1-.5l4.7-11.3-11.5-27.2c-.1-.3-.2-.5-.2-.7.1-.4.2-.7.5-.9.2-.3.5-.4.9-.4h6.8c.5,0,.9.1,1.2.4s.4.5.5.9l6.9,17.5,7-17.5c.2-.3.4-.6.6-.9s.6-.4,1.2-.4h6.7c.4,0,.7.1.9.4s.4.5.4.9c0,.2-.1.5-.2.8l-17,39.3c-.1.3-.3.6-.6.9s-.7.4-1.2.4l-6.4-.1h0Z" style="fill:#fff; stroke-width:0px;"/><path d="m236.4,30l-1.5,4.2h3l-1.5-4.2Zm11.9-.1c-.2-.3-.6-.4-1.1-.4h-1.9v2.8h1.9c.5,0,.9-.1,1.1-.4.2-.2.4-.6.4-1s-.1-.7-.4-1Zm0,0c-.2-.3-.6-.4-1.1-.4h-1.9v2.8h1.9c.5,0,.9-.1,1.1-.4.2-.2.4-.6.4-1s-.1-.7-.4-1Zm-11.9.1l-1.5,4.2h3l-1.5-4.2Zm29.9-7.9v-3.2c0-.9-.8-1.7-1.7-1.7h-45.4c-.8,0-1.5.5-1.8,1.2l-11.8,27.2c-.6,1.3.4,2.8,1.8,2.8h57.2c1,0,1.7-.8,1.7-1.7v-3.2c0-3.2,4.5-4.3,4.5-10.7s-4.5-7.4-4.5-10.7Zm-35.9,16c0,.1,0,.2-.1.3s-.2.1-.3.1h-1.9c-.1,0-.2,0-.3-.1s-.1-.2-.1-.3v-6l-1.8,3.3c0,.1-.1.2-.2.3-.1.1-.2.1-.4.1h-.8c-.1,0-.3,0-.3-.1-.1-.1-.2-.2-.2-.3l-1.8-3.3v6c0,.1,0,.2-.1.3s-.2.1-.3.1h-1.9c-.1,0-.2,0-.3-.1s-.1-.2-.1-.3v-10.4c0-.1,0-.2.1-.3.1-.1.2-.1.3-.1h1.7c.2,0,.3,0,.4.1.1.1.1.2.2.2l2.8,5.1,2.8-5.1s.1-.1.2-.2c.1-.1.2-.1.4-.1h1.7c.1,0,.2,0,.3.1s.1.2.1.3v10.4h-.1Zm11.5.3c-.1.1-.2.1-.2.1h-2c-.2,0-.3,0-.4-.1q-.1-.1-.2-.2l-.6-1.6h-4.3l-.6,1.6c0,.1-.1.1-.1.2-.1.1-.2.1-.4.1h-2c-.1,0-.2,0-.2-.1s-.1-.1-.1-.2v-.1l3.8-10.3c0-.1.1-.2.2-.3.1-.1.2-.1.4-.1h2.4c.2,0,.3,0,.4.1.1.1.2.2.2.3l3.8,10.2v.1q0,.2-.1.3Zm9.9,0c-.1.1-.2.1-.2.1h-2.1c-.2,0-.4-.1-.5-.2-.1-.1-.2-.2-.2-.3l-1.8-3.5h-1.6v3.5c0,.1,0,.2-.1.3s-.2.1-.3.1h-2.1c-.1,0-.2,0-.3-.1s-.1-.2-.1-.3v-10.3c0-.1,0-.2.1-.3.1-.1.2-.1.3-.1h4.3c1.4,0,2.5.3,3.3,1,.8.6,1.2,1.5,1.2,2.7,0,.8-.2,1.4-.5,1.9-.4.5-.8.9-1.5,1.2l2.2,3.9v.2q0,.1-.1.2Zm9.4-9c0,.1,0,.2-.1.3-.1.1-.2.1-.3.1h-2.8v8.3c0,.1,0,.2-.1.3s-.2.1-.3.1h-2.1c-.1,0-.2,0-.3-.1s-.1-.2-.1-.3v-8.3h-2.9c-.1,0-.2,0-.3-.1s-.1-.2-.1-.3v-1.7c0-.1,0-.2.1-.3.1-.1.2-.1.3-.1h8.6c.1,0,.2,0,.3.1.1.1.1.2.1.3v1.7h0Zm-14,.1h-1.9v2.8h1.9c.5,0,.9-.1,1.1-.4.2-.2.4-.6.4-1s-.1-.8-.4-1c-.2-.2-.6-.4-1.1-.4Zm-12.3,4.7h3l-1.5-4.2-1.5,4.2Zm1.5-4.2l-1.5,4.2h3l-1.5-4.2Zm0,0l-1.5,4.2h3l-1.5-4.2Z" style="fill:#fff; stroke-width:0px;"/></svg>