<svg xmlns="http://www.w3.org/2000/svg" xmlns:xlink="http://www.w3.org/1999/xlink" viewBox="0 0 24 24"><defs><path d="M17.31,21.37a1.27,1.27,0,0,1-.68-.19L12,18.35,7.37,21.18a1.31,1.31,0,0,1-2-1.42l1.26-5.28L2.55,11a1.32,1.32,0,0,1-.39-1.41,1.3,1.3,0,0,1,1.14-.9l5.41-.43,2.08-5h0a1.31,1.31,0,0,1,2.42,0l2.08,5,5.41.43a1.31,1.31,0,0,1,.75,2.3l-4.12,3.53,1.26,5.28a1.31,1.31,0,0,1-.51,1.36A1.29,1.29,0,0,1,17.31,21.37ZM3.87,10.11l3.86,3.31a1.31,1.31,0,0,1,.43,1.3L7,19.67,11.32,17a1.3,1.3,0,0,1,1.37,0L17,19.67l-1.18-5a1.31,1.31,0,0,1,.43-1.3l3.86-3.31L15.06,9.7A1.31,1.31,0,0,1,14,8.9L12,4.2,10.05,8.9a1.31,1.31,0,0,1-1.11.8Zm8,8.18h0Zm.2,0Z" id="icons-heroicons-solid-star"/></defs><use xlink:href="#icons-heroicons-solid-star" fill-rule="evenodd" /></svg>