<svg xmlns="http://www.w3.org/2000/svg" xmlns:xlink="http://www.w3.org/1999/xlink" version="1.1" width="32" height="32" viewBox="0 0 32 32"><defs><path d="M31.54,10.67a8,8,0,0,1-.6,3,7.8,7.8,0,0,1-1.74,2.62L16,29.52,2.8,16.32A7.8,7.8,0,0,1,1.06,13.7a8,8,0,0,1,.47-7A8,8,0,0,1,4.44,3.74a7.91,7.91,0,0,1,4-1.07,8.05,8.05,0,0,1,3,.59A7.88,7.88,0,0,1,14.11,5L16,6.9,17.88,5a8,8,0,0,1,5.66-2.34,7.81,7.81,0,0,1,4,1.07,8.12,8.12,0,0,1,2.91,2.91A7.91,7.91,0,0,1,31.54,10.67Z" id="icons-featherold-heart"/></defs><use xlink:href="#icons-featherold-heart" fill-rule="evenodd" /></svg>