<svg xmlns="http://www.w3.org/2000/svg" xmlns:xml="http://www.w3.org/XML/1998/namespace" xmlns:xlink="http://www.w3.org/1999/xlink" version="1.1" x="0px" y="0px" viewBox="0 0 20 20" xml:space="preserve"><defs><path d="M5,3c0,1.1-0.7,2-2,2C1.8,5,1,4.1,1,3.1C1,2,1.8,1,3,1S5,1.9,5,3z M1,19V6h4v13H1z M7,10.4c0-1.5-0.1-2.8-0.1-4h3.6l0.2,1.7 h0.1c0.5-0.8,1.7-2,3.8-2c2.5,0,4.4,1.7,4.4,5.3V19h-4v-6.9c0-1.6-0.6-2.8-2-2.8c-1.1,0-1.6,0.9-1.9,1.6c-0.1,0.3-0.1,0.6-0.1,1V19 H7V10.4z" id="icons-social-linkedin" /></defs><use xlink:href="#icons-social-linkedin" fill-rule="evenodd" /></svg>