<svg xmlns="http://www.w3.org/2000/svg" xmlns:xlink="http://www.w3.org/1999/xlink" version="1.1" width="32" height="32" viewBox="0 0 32 32"><defs><path d="M0,15.7c0.1-0.5,0.8-1.1,2.2-1.6c8.6-3.7,14.3-6.2,17.1-7.4c8.2-3.4,9.9-4,11-4c0.2,0,0.8,0.1,1.1,0.3 c0.2,0.2,0.4,0.5,0.4,0.8c0,0.2,0.1,0.8,0,1.2c-0.4,4.7-2.4,15.9-3.3,21.1c-0.4,2.2-1.2,2.9-2,3c-1.7,0.1-3-1.1-4.7-2.2 c-2.6-1.7-4-2.8-6.6-4.4c-2.9-1.9-1-3,0.6-4.7c0.4-0.5,8-7.3,8.1-7.9c0-0.1,0-0.4-0.1-0.5c-0.2-0.1-0.4-0.1-0.6,0	c-0.2,0-4.4,2.8-12.4,8.2c-1.2,0.8-2.2,1.2-3.2,1.2c-1.1,0-3.1-0.6-4.6-1.1C1.4,17-0.1,16.7,0,15.7z" id="icons-social-telegram" /></defs><use xlink:href="#icons-social-telegram" fill-rule="evenodd" /></svg>